<?xml version="1.0" encoding="UTF-8"?>
<svg id="Layer_2" data-name="Layer 2" xmlns="http://www.w3.org/2000/svg" viewBox="0 0 1070.79 356.2">
  <defs>
    <style>
      .cls-1 {
        fill: #ff9200;
      }

      .cls-2 {
        fill: #202020;
      }
    </style>
  </defs>
  <g id="Layer_1-2" data-name="Layer 1">
    <g>
      <g>
        <polygon class="cls-2" points="399.68 115.27 461 115.27 461 172.87 482.36 172.87 482.36 42.8 461 42.8 461 95.76 399.68 95.76 399.68 42.8 378.31 42.8 378.31 172.87 399.68 172.87 399.68 115.27"/>
        <path class="cls-2" d="M584.74,159.3l-13.01-13.19c-2.73,3.1-6.04,5.45-9.94,7.06-3.9,1.61-8.15,2.42-12.73,2.42-5.33,0-10.03-1.14-14.12-3.44-4.09-2.29-7.25-5.54-9.48-9.75-1.06-2.01-1.87-4.18-2.42-6.5h66.53c.37-1.86.65-3.56.84-5.11.19-1.55.28-3.07.28-4.55,0-8.55-1.83-16.16-5.48-22.85-3.66-6.69-8.67-11.95-15.05-15.79-6.38-3.84-13.72-5.76-22.02-5.76s-16.32,2.04-23.32,6.13c-7,4.09-12.54,9.63-16.63,16.63-4.09,7-6.13,14.9-6.13,23.69s2.07,16.72,6.22,23.78c4.15,7.06,9.78,12.61,16.91,16.63,7.12,4.03,15.14,6.04,24.06,6.04,6.94,0,13.5-1.3,19.7-3.9,6.19-2.6,11.46-6.44,15.79-11.52ZM525.28,113.32c2.1-4.02,5.08-7.15,8.92-9.38,3.84-2.23,8.36-3.34,13.56-3.34s9.13.99,12.54,2.97c3.41,1.98,6.04,4.83,7.9,8.55,1.04,2.08,1.82,4.44,2.35,7.06h-47.45c.52-2.1,1.24-4.06,2.18-5.85Z"/>
        <polygon class="cls-2" points="653.09 127 683.77 83.68 660.17 83.68 641.23 111.93 621.71 83.68 597 83.68 628.26 127.21 595.33 172.87 619.11 172.87 640.08 142.22 660.92 172.87 685.44 172.87 653.09 127"/>
        <path class="cls-2" d="M781.5,172.87v-89.19h-20.44v9.93c-2.57-2.97-5.63-5.45-9.2-7.42-5.27-2.91-11.3-4.37-18.12-4.37-8.05,0-15.33,2.08-21.83,6.22-6.5,4.15-11.64,9.73-15.42,16.72-3.78,7-5.67,14.9-5.67,23.69s1.89,16.51,5.67,23.5c3.78,7,8.92,12.54,15.42,16.63,6.5,4.09,13.78,6.13,21.83,6.13,6.81,0,12.88-1.46,18.21-4.37,3.55-1.94,6.57-4.37,9.1-7.27v9.78h20.44ZM755.4,147.78c-4.64,5.08-10.75,7.62-18.3,7.62-4.96,0-9.32-1.14-13.1-3.44-3.78-2.29-6.75-5.48-8.92-9.57-2.17-4.09-3.25-8.79-3.25-14.12s1.08-10.03,3.25-14.12c2.17-4.09,5.14-7.27,8.92-9.57,3.78-2.29,8.14-3.44,13.1-3.44s9.5,1.15,13.29,3.44c3.78,2.29,6.72,5.48,8.83,9.57,2.1,4.09,3.16,8.8,3.16,14.12,0,7.93-2.32,14.43-6.97,19.51Z"/>
        <path class="cls-2" d="M457.56,315.28c-5.51,2.42-12.23,3.62-20.16,3.62-6.44,0-12.33-1.12-17.65-3.34-5.33-2.23-9.94-5.42-13.84-9.57-3.9-4.15-6.91-9.07-9.01-14.77-2.11-5.7-3.16-11.95-3.16-18.77s1.05-13.07,3.16-18.77c2.1-5.7,5.11-10.62,9.01-14.77,3.9-4.15,8.51-7.34,13.84-9.57,5.33-2.23,11.21-3.34,17.65-3.34,7.31,0,13.72,1.18,19.23,3.53,5.51,2.35,10.19,5.64,14.03,9.85l14.49-14.49c-5.95-5.95-12.76-10.65-20.44-14.12-7.68-3.47-16.79-5.2-27.31-5.2-9.42,0-18.12,1.74-26.11,5.2-7.99,3.47-14.96,8.24-20.9,14.31-5.95,6.07-10.53,13.16-13.75,21.27-3.22,8.11-4.83,16.81-4.83,26.11s1.61,17.99,4.83,26.1c3.22,8.11,7.8,15.24,13.75,21.37,5.95,6.13,12.91,10.9,20.9,14.31,7.99,3.41,16.69,5.11,26.11,5.11,10.41,0,19.63-1.74,27.68-5.2,8.05-3.47,15.05-8.24,21-14.31l-14.49-14.49c-3.84,4.21-8.52,7.53-14.03,9.94Z"/>
        <path class="cls-2" d="M558.17,248.86c-3.59-1.61-7.62-2.42-12.08-2.42-10.16,0-17.74,3.5-22.76,10.5-.16.22-.31.45-.46.68v-9.32h-20.44v89.19h20.44v-49.61c0-7.68,1.86-13.31,5.57-16.91,3.72-3.59,8.42-5.39,14.12-5.39,2.6,0,4.89.37,6.87,1.11,1.98.74,3.78,1.98,5.39,3.72l13.38-13.75c-3.1-3.59-6.44-6.19-10.03-7.8Z"/>
        <path class="cls-2" d="M637.78,252.2c-6.38-3.84-13.72-5.76-22.02-5.76s-16.32,2.04-23.32,6.13c-7,4.09-12.54,9.63-16.63,16.63-4.09,7-6.13,14.9-6.13,23.69s2.07,16.72,6.22,23.78c4.15,7.06,9.78,12.61,16.91,16.63,7.12,4.03,15.14,6.04,24.06,6.04,6.94,0,13.5-1.3,19.7-3.9,6.19-2.6,11.46-6.44,15.79-11.52l-13.01-13.19c-2.73,3.1-6.04,5.45-9.94,7.06-3.9,1.61-8.15,2.42-12.73,2.42-5.33,0-10.03-1.14-14.12-3.44-4.09-2.29-7.25-5.54-9.48-9.75-1.06-2.01-1.87-4.18-2.42-6.5h66.53c.37-1.86.65-3.56.84-5.11.19-1.55.28-3.07.28-4.55,0-8.55-1.83-16.16-5.48-22.85-3.66-6.69-8.67-11.95-15.05-15.79ZM592.91,277.94c2.1-4.02,5.08-7.15,8.92-9.38,3.84-2.23,8.36-3.34,13.56-3.34s9.13.99,12.54,2.97c3.41,1.98,6.04,4.83,7.9,8.55,1.04,2.08,1.82,4.44,2.35,7.06h-47.45c.52-2.1,1.24-4.06,2.18-5.85Z"/>
        <path class="cls-2" d="M739.32,258.23c-2.57-2.97-5.63-5.45-9.2-7.42-5.27-2.91-11.3-4.37-18.12-4.37-8.05,0-15.33,2.08-21.83,6.22-6.5,4.15-11.64,9.73-15.42,16.72-3.78,7-5.67,14.9-5.67,23.69s1.89,16.51,5.67,23.5c3.78,7,8.92,12.54,15.42,16.63,6.5,4.09,13.78,6.13,21.83,6.13,6.81,0,12.88-1.46,18.21-4.37,3.55-1.94,6.57-4.37,9.1-7.27v9.78h20.44v-89.19h-20.44v9.93ZM733.66,312.4c-4.64,5.08-10.75,7.62-18.3,7.62-4.96,0-9.32-1.14-13.1-3.44-3.78-2.29-6.75-5.48-8.92-9.57-2.17-4.09-3.25-8.79-3.25-14.12s1.08-10.03,3.25-14.12c2.17-4.09,5.14-7.27,8.92-9.57,3.78-2.29,8.14-3.44,13.1-3.44s9.5,1.15,13.29,3.44c3.78,2.29,6.72,5.48,8.83,9.57,2.1,4.09,3.16,8.8,3.16,14.12,0,7.93-2.32,14.43-6.97,19.51Z"/>
        <polygon class="cls-2" points="816.43 211.14 795.99 211.14 795.99 248.3 774.62 248.3 774.62 266.88 795.99 266.88 795.99 337.49 816.43 337.49 816.43 266.88 837.8 266.88 837.8 248.3 816.43 248.3 816.43 211.14"/>
        <rect class="cls-2" x="852.85" y="248.3" width="20.44" height="89.19"/>
        <path class="cls-2" d="M863.07,207.42c-3.47,0-6.35,1.18-8.64,3.53-2.29,2.35-3.44,5.27-3.44,8.73s1.14,6.38,3.44,8.73c2.29,2.35,5.17,3.53,8.64,3.53s6.5-1.18,8.73-3.53c2.23-2.35,3.34-5.26,3.34-8.73s-1.12-6.38-3.34-8.73c-2.23-2.35-5.14-3.53-8.73-3.53Z"/>
        <polygon class="cls-2" points="932.57 305.34 908.21 248.3 885.55 248.3 926.24 337.49 938.13 337.49 978.82 248.3 957.08 248.3 932.57 305.34"/>
        <path class="cls-2" d="M1065.31,268c-3.66-6.69-8.67-11.95-15.05-15.79-6.38-3.84-13.72-5.76-22.02-5.76s-16.32,2.04-23.32,6.13c-7,4.09-12.54,9.63-16.63,16.63-4.09,7-6.13,14.9-6.13,23.69s2.07,16.72,6.22,23.78c4.15,7.06,9.78,12.61,16.91,16.63,7.12,4.03,15.14,6.04,24.06,6.04,6.94,0,13.5-1.3,19.7-3.9,6.19-2.6,11.46-6.44,15.79-11.52l-13.01-13.19c-2.73,3.1-6.04,5.45-9.94,7.06-3.9,1.61-8.15,2.42-12.73,2.42-5.33,0-10.03-1.14-14.12-3.44-4.09-2.29-7.25-5.54-9.48-9.75-1.06-2.01-1.87-4.18-2.42-6.5h66.53c.37-1.86.65-3.56.84-5.11.19-1.55.28-3.07.28-4.55,0-8.55-1.83-16.16-5.48-22.85ZM1005.39,277.94c2.1-4.02,5.08-7.15,8.92-9.38,3.84-2.23,8.36-3.34,13.56-3.34s9.13.99,12.54,2.97c3.41,1.98,6.04,4.83,7.9,8.55,1.04,2.08,1.82,4.44,2.35,7.06h-47.45c.52-2.1,1.24-4.06,2.18-5.85Z"/>
      </g>
      <g>
        <g>
          <path class="cls-1" d="M168.21,99.46v73.41h-31.56v-66.24c0-6.86-2.15-12.43-6.47-16.74-4.3-4.3-9.8-6.45-16.5-6.45-4.45,0-8.43.96-11.95,2.87-3.51,1.9-6.25,4.65-8.25,8.23-2,3.6-2.99,7.63-2.99,12.08v66.24h-31.32V0h31.32v67.98c2.77-2.82,5.95-5.24,9.56-7.26,6.86-3.83,14.67-5.75,23.44-5.75s16.5,1.88,23.19,5.63c6.7,3.75,11.96,8.96,15.78,15.66,3.83,6.69,5.75,14.43,5.75,23.19Z"/>
          <path class="cls-1" d="M296.13,82.72c-4.79-8.77-11.48-15.63-20.08-20.57-8.62-4.94-18.33-7.41-29.17-7.41-11.48,0-21.84,2.64-31.08,7.9-9.26,5.26-16.55,12.43-21.88,21.52-5.34,9.07-8.01,19.36-8.01,30.83s2.71,21.99,8.13,31.08c5.41,9.09,12.87,16.27,22.35,21.52,9.49,5.26,20.28,7.88,32.4,7.88,9.41,0,18.1-1.66,26.08-5.01,7.96-3.36,14.9-8.37,20.8-15.07l-18.65-18.65c-3.51,4.15-7.66,7.17-12.43,9.09-4.79,1.92-10.13,2.87-16.03,2.87-6.54,0-12.27-1.36-17.21-4.07-4.96-2.71-8.74-6.65-11.36-11.85-1.04-2.05-1.88-4.25-2.5-6.6l84.4-.2c.62-2.55,1.02-4.91,1.19-7.06.15-2.15.24-4.27.24-6.33,0-11.16-2.39-21.12-7.17-29.89ZM217.48,102.77c.57-2.15,1.33-4.17,2.27-6.05,2.45-5.02,6.02-8.89,10.64-11.61,4.62-2.71,10.03-4.05,16.25-4.05,5.9,0,10.84,1.19,14.84,3.58,3.98,2.39,7.09,5.9,9.33,10.52,1.06,2.22,1.9,4.7,2.49,7.44l-55.8.17Z"/>
          <polygon class="cls-1" points="168.21 319.05 131.4 319.05 107.12 282.08 82.62 319.05 47.22 319.05 89.27 260.14 49.37 203.56 86.67 203.56 109.05 237.41 130.91 203.56 166.06 203.56 127.21 259.42 168.21 319.05"/>
          <path class="cls-1" d="M262.66,203.56v10.92c-3.18-3.31-6.92-6.08-11.24-8.3-6.54-3.34-13.86-5.02-21.99-5.02-10.69,0-20.2,2.64-28.56,7.9-8.38,5.26-14.95,12.43-19.73,21.52-4.79,9.07-7.17,19.36-7.17,30.83s2.39,21.52,7.17,30.61c4.77,9.09,11.34,16.27,19.73,21.52,8.37,5.26,17.81,7.88,28.33,7.88,8.28,0,15.74-1.66,22.35-5.02,4.28-2.17,8-4.87,11.12-8.15v10.79h31.56v-115.48h-31.56ZM256.44,283.66c-5.43,5.9-12.52,8.84-21.27,8.84-5.6,0-10.62-1.34-15.07-4.07-4.47-2.71-7.93-6.37-10.4-10.99-2.47-4.62-3.71-10.05-3.71-16.27s1.24-11.39,3.71-16.01,5.9-8.28,10.28-11.01c4.39-2.71,9.44-4.07,15.19-4.07s10.99,1.33,15.29,3.95c4.3,2.64,7.73,6.33,10.28,11.12,2.55,4.77,3.83,10.2,3.83,16.25,0,8.94-2.72,16.35-8.13,22.25Z"/>
        </g>
        <path class="cls-1" d="M98.9,14.45v8.4h234.45v324.95H8.4V22.85h42.38v-8.4H0v341.75h341.75V14.45H98.9Z"/>
      </g>
    </g>
  </g>
</svg>